<svg height="192" version="1.1" viewBox="0 0 192 192" width="192" xmlns="http://www.w3.org/2000/svg" xmlns:svg="http://www.w3.org/2000/svg">
  <defs id="defs1"></defs>
  <path aria-label="f i f" d="m 47.002019,124.57253 q -1.75925,0 -3.909446,-1.09613 -2.150194,-1.09613 -3.648814,-2.63072 -1.433463,-1.53458 -1.433463,-2.70379 0,-1.31536 0.781888,-3.94607 0.847047,-2.70381 2.410825,-7.16142 l 1.694093,-5.0422 -4.886806,0.87691 q -1.107677,-0.65769 -1.759251,-1.97305 -0.651575,-1.315355 -0.651575,-2.849944 0,-1.388433 0.456103,-2.630719 0.52126,-1.315359 1.49862,-2.192265 1.563778,0.07308 4.886806,-0.07308 l 2.150196,-0.07308 q -1.042519,-8.915217 -1.042519,-13.59205 0,-3.288399 0.456101,-5.042212 0.390945,-1.315359 2.01988,-2.849945 1.694094,-1.534586 3.844288,-2.557644 2.215353,-1.096132 4.170075,-1.096132 3.388185,0 6.255111,1.60766 2.93209,1.534587 4.626184,4.092231 1.694092,2.484567 1.694092,5.042212 0,2.776869 -1.759255,4.530682 -1.759255,1.680737 -4.561021,1.680737 -1.042518,0 -2.541138,-0.365377 -0.716733,-5.261438 -3.388186,-7.819081 -1.042518,4.530682 -1.628936,7.819081 -0.521259,3.288398 -0.586416,7.819082 3.388185,-0.511528 8.665937,-1.899964 1.172833,0.949982 1.759243,2.338418 0.651586,1.315358 0.651586,2.849943 0,2.33842 -1.498625,4.603757 -1.303149,0.14616 -3.909445,0.29231 l -6.646057,0.5846 q -0.390946,3.36147 -0.52126,5.48065 -0.847045,9.06138 -1.628935,13.51898 -0.716732,4.45762 -2.01988,4.45762 z M 96.195788,81.238745 q -1.237992,0 -2.997247,-1.096133 -1.694094,-1.169209 -2.932071,-2.703794 -1.237993,-1.607663 -1.237993,-2.849947 0,-1.973039 0.912201,-3.946078 0.9122,-1.97304 2.280517,-2.849947 0.651569,-0.365376 2.085032,-0.365376 2.34567,0 4.691323,1.169207 2.41082,1.169208 2.93208,2.923021 0.1303,0.365379 0.1303,1.096134 0,1.680738 -0.9122,3.726852 -0.91222,2.046116 -2.28052,3.507627 -1.368296,1.388434 -2.671452,1.388434 z m -4.43071,43.333785 q -1.694093,0 -3.844286,-1.24228 -2.085032,-1.31535 -3.648817,-2.9961 -1.498609,-1.75382 -1.498609,-2.92301 0,-1.31536 0.84704,-3.87301 0.847054,-2.55764 2.541147,-7.01524 1.303139,-3.43456 1.954724,-5.33452 0.65157,-1.973044 0.65157,-2.776875 0,-0.584605 -0.65157,-1.242283 -0.586424,-0.730756 -1.824416,-1.753815 -1.433463,-1.242283 -2.150194,-1.973039 -0.651569,-0.730755 -0.651569,-1.534586 0,-1.534584 1.237994,-3.580701 1.303139,-2.046114 2.99723,-3.507625 1.759256,-1.461511 2.997249,-1.461511 1.498624,0 3.257863,1.461511 1.824415,1.461511 3.062411,3.507625 1.303137,1.973041 1.303137,3.215325 0,3.215323 -1.498626,9.207514 -1.433461,5.91912 -3.713961,12.78822 1.56377,-0.80383 2.736604,-1.68075 1.172846,-0.87691 3.25788,-2.70379 2.932081,1.09614 4.300381,3.14226 1.3683,1.97303 1.3683,4.31146 0,1.89996 -2.21534,3.72684 -2.15021,1.82689 -5.277756,3.06918 -3.127562,1.1692 -5.538386,1.1692 z m 45.023762,0 q -1.75925,0 -3.90945,-1.09613 -2.15019,-1.09613 -3.64882,-2.63072 -1.43347,-1.53458 -1.43347,-2.70379 0,-1.31536 0.7819,-3.94607 0.84704,-2.70381 2.41083,-7.16142 l 1.69408,-5.0422 -4.88681,0.87691 q -1.10766,-0.65769 -1.75925,-1.97305 -0.65157,-1.315355 -0.65157,-2.849944 0,-1.388433 0.45611,-2.630719 0.52126,-1.315359 1.49861,-2.192265 1.56379,0.07308 4.88682,-0.07308 l 2.15019,-0.07308 q -1.04252,-8.915217 -1.04252,-13.59205 0,-3.288399 0.4561,-5.042212 0.39096,-1.315359 2.01989,-2.849945 1.69408,-1.534586 3.84427,-2.557644 2.21536,-1.096132 4.17008,-1.096132 3.38819,0 6.25512,1.60766 2.93208,1.534587 4.62618,4.092231 1.69409,2.484567 1.69409,5.042212 0,2.776869 -1.75925,4.530682 -1.75926,1.680737 -4.56102,1.680737 -1.04253,0 -2.54115,-0.365377 -0.71672,-5.261438 -3.38819,-7.819081 -1.0425,4.530682 -1.62892,7.819081 -0.52127,3.288398 -0.58642,7.819082 3.38819,-0.511528 8.66594,-1.899964 1.17283,0.949982 1.75924,2.338418 0.65158,1.315358 0.65158,2.849943 0,2.33842 -1.49862,4.603757 -1.30315,0.14616 -3.90945,0.29231 l -6.64605,0.5846 q -0.39096,3.36147 -0.52127,5.48065 -0.84705,9.06138 -1.62892,13.51898 -0.71673,4.45762 -2.01988,4.45762 z" id="text3" style="font-size:41.1073px;font-family:Mogra;-inkscape-font-specification:'Mogra, Normal';stroke:#000000;stroke-width:3.79094;stroke-linecap:round;stroke-linejoin:round;stroke-dasharray:none;stroke-opacity:1"></path>
</svg>
