<?xml version="1.0" encoding="UTF-8" standalone="no"?>
<svg
   t="1750859110638"
   class="icon"
   viewBox="0 0 1024 1024"
   version="1.1"
   p-id="16424"
   width="192"
   height="192"
   id="svg40"
   sodipodi:docname="jjxsyd.svg"
   inkscape:version="1.4.2 (f4327f4, 2025-05-13)"
   xmlns:inkscape="http://www.inkscape.org/namespaces/inkscape"
   xmlns:sodipodi="http://sodipodi.sourceforge.net/DTD/sodipodi-0.dtd"
   xmlns="http://www.w3.org/2000/svg"
   xmlns:svg="http://www.w3.org/2000/svg">
  <defs
     id="defs40" />
  <sodipodi:namedview
     id="namedview40"
     pagecolor="#505050"
     bordercolor="#eeeeee"
     borderopacity="1"
     inkscape:showpageshadow="0"
     inkscape:pageopacity="0"
     inkscape:pagecheckerboard="0"
     inkscape:deskcolor="#505050"
     inkscape:zoom="3.0825438"
     inkscape:cx="85.805757"
     inkscape:cy="123.76142"
     inkscape:window-width="1920"
     inkscape:window-height="1051"
     inkscape:window-x="-9"
     inkscape:window-y="-9"
     inkscape:window-maximized="1"
     inkscape:current-layer="svg40" />
  <path
     d="m 506.97332,861.7519 c 4.91375,4.0122 10.98649,-3.27186 6.97094,-7.64984 -5.59254,-0.52262 -5.52232,4.28033 -6.97094,7.64984 z"
     p-id="16425"
     id="path1"
     style="stroke-width:0.785874" />
  <path
     d="m 367.56982,899.98341 c -4.57388,1.75678 -7.94093,-2.15132 -9.29062,2.185 11.24891,-0.10487 21.4337,9.50261 36.0153,9.83159 -3.25613,-9.32571 -19.98353,-5.97386 -26.72468,-12.01659 z"
     p-id="16426"
     id="path2"
     style="stroke-width:0.785874" />
  <path
     d="m 136.40026,636.73667 c 1.36004,-0.16167 3.29443,0.18729 3.47788,-1.08928 0.42437,-9.45864 1.12553,-19.16699 -6.97013,-25.12647 4.56513,-1.01005 2.93228,3.79932 8.13315,2.18819 -0.0239,-6.59976 -4.61697,-9.44102 -10.45839,-7.64822 -0.93088,-4.94783 -6.99885,-5.06948 -4.64091,-13.10508 h -3.48666 c 0.122,26.76159 5.75129,58.9192 16.26631,85.19738 14.14688,-4.97824 -1.87375,-28.41433 -2.32125,-40.41652 z"
     p-id="16427"
     id="path3"
     style="stroke-width:0.785874" />
  <path
     d="m 610.36956,849.73611 c 0.31589,2.32985 5.90841,5.24476 6.9661,3.27668 -2.83335,-0.60588 -2.47519,-4.22669 -6.9661,-3.27668 z"
     p-id="16428"
     id="path4"
     style="stroke-width:0.785874" />
  <path
     d="m 353.62874,897.79524 c -2.80065,-2.09535 -4.60744,-5.12629 -6.96533,-7.64262 -2.64592,-0.78995 -5.94112,-0.97722 -8.13315,-2.18657 -24.27749,-18.18735 -52.20666,-26.42544 -72.03222,-48.06474 -21.2119,-5.23035 -26.49019,-31.05952 -48.78458,-31.6718 9.12069,10.62076 16.48649,23.657 27.87815,31.6718 2.99768,2.10814 7.19589,2.08574 10.45763,4.37155 5.97622,4.2011 10.22146,11.19463 16.26072,15.29085 3.32394,2.25463 8.04381,4.46841 11.62139,6.56135 20.28105,11.8389 45.94725,28.4031 68.53912,32.76745 1.23323,0.0424 2.95622,-0.51939 1.15827,-1.09727 z"
     p-id="16429"
     id="path5"
     style="stroke-width:0.785874" />
  <path
     d="m 191.06854,180.08806 c 22.86551,13.59088 48.75666,-5.92345 51.11537,-25.12646 -3.69087,-39.21597 -58.41895,-34.69795 -62.72642,-2.18737 -0.90857,6.81263 2.4752,21.8786 11.61105,27.31383 z"
     p-id="16430"
     id="path6"
     style="stroke-width:0.785874" />
  <path
     d="m 125.94106,314.50509 c 4.86746,-5.94347 -12.51401,-15.74225 -13.94106,-5.45524 2.53264,3.8081 6.82974,5.95706 13.94106,5.45524 z"
     p-id="16431"
     id="path7"
     style="stroke-width:0.785874" />
  <path
     d="m 151.49876,694.63141 c 1.04576,-6.01709 -4.45185,-11.58759 -6.96934,-17.47742 -0.21218,1.61591 -2.81421,1.00285 -4.65128,1.09168 5.2296,10.37264 4.85788,26.01967 12.78443,33.86398 4.42874,23.50252 24.03254,42.21492 34.84829,63.35239 9.2244,5.88503 13.59728,16.33931 23.23645,21.84177 -1.25155,-9.01922 -10.08745,-10.90809 -10.46317,-20.75489 -23.09127,-20.88055 -31.12073,-55.93467 -48.78538,-81.91751 z"
     p-id="16432"
     id="path8"
     style="stroke-width:0.785874" />
  <path
     d="m 189.83054,601.78501 h 4.65446 c -0.26723,-2.06331 1.30421,-2.40747 1.15264,-4.36755 -1.59457,0.0448 -2.5454,-0.51464 -3.48744,-1.09329 -0.34379,2.14575 1.57141,2.16818 2.3348,3.27585 -0.72429,1.51189 -4.48138,0.16489 -4.65446,2.18499 z"
     p-id="16433"
     id="path9"
     style="stroke-width:0.785874" />
  <path
     d="m 179.37771,561.3685 c 0.86549,-0.461 2.34838,-6.35324 -2.32444,-6.55014 0.70355,2.24901 -1.87535,7.58821 2.32444,6.55014 z"
     p-id="16434"
     id="path10"
     style="stroke-width:0.785874" />
  <path
     d="m 900.79404,513.30697 c 20.55866,-25.38818 7.8077,-64.65777 1.15596,-98.30806 -4.84763,-24.52377 -16.67484,-47.45085 -20.91214,-67.71752 -1.91601,-2.93253 -6.33439,-3.51119 -8.12595,-6.55574 -13.84057,-49.25328 -41.76979,-85.24301 -75.5117,-115.78549 -7.47904,1.39983 -10.37222,0.38338 -16.26232,3.27987 -1.03062,-1.94167 -3.24734,-2.77805 -2.32525,-6.55814 -5.33569,0.48582 -10.53335,2.30344 -10.45757,-4.36995 6.71807,0.4618 10.77265,0.92841 18.59153,2.19217 -2.6778,-3.47116 -3.72198,-2.78283 -2.32444,-8.73751 -49.23289,-50.2161 -127.42394,-85.59996 -210.27192,-93.94289 -35.36278,-7.19763 -72.07605,-5.23115 -106.87089,-1.0933 -14.49306,1.72238 -27.10123,10.96812 -42.98701,8.74233 -30.39487,11.8293 -64.03465,20.62042 -88.28333,38.22432 -3.17241,0.10013 -2.33486,-1.81922 -4.64655,0 -14.74031,11.26585 -34.04741,18.24578 -46.46967,31.68619 -26.91777,15.46213 -46.00704,38.29318 -69.70135,56.79105 -0.6916,3.48316 2.17922,3.37431 0,5.46725 -14.27534,5.75939 -14.54893,18.18095 -22.07824,29.49322 3.02164,0.43779 3.35982,3.39113 4.65366,5.46244 -13.85092,14.04791 -12.11437,46.90423 -36.01529,48.05594 12.3505,13.12267 -0.79927,30.44965 -10.4584,40.41731 4.30669,4.83176 -1.65118,9.32098 -3.48346,12.01179 1.4127,8.52221 -4.13199,14.14875 -1.16621,20.75569 -6.67021,14.96751 -22.44116,21.51685 -18.58118,38.22673 -3.55447,0.78995 -4.23728,-1.1069 -6.97093,-1.0917 -0.68282,2.26983 -2.23192,3.72649 -4.64649,4.37238 -3.05513,20.5356 -1.59536,47.21955 -1.16303,73.18639 0.20262,12.13263 3.93975,23.02711 4.6465,33.85676 0.66367,10.07892 -4.29791,22.43326 5.8119,28.40554 3.29442,0.18888 -1.40631,-7.1512 3.48347,-5.47045 2.87166,0.94361 4.25962,3.27826 4.64091,6.55333 0.47542,4.81735 -5.56383,3.51197 -3.48348,9.8348 9.53548,1.30699 10.8357,-9.01123 19.74979,-13.10987 -1.04655,-3.19503 -1.04655,-3.3519 0,-6.55414 3.58638,-3.60481 6.7069,-0.9116 9.29538,-5.46085 -5.00704,1.20214 -5.40269,-0.81716 -8.13317,-1.09247 3.93498,-7.75229 7.24375,-17.56388 17.43014,-16.38175 1.04336,-5.1527 -6.45405,-1.02447 -3.48906,-4.36757 0.77695,3.01415 4.00516,-4.99983 0,-1.08688 -0.85111,-3.38472 6.89196,-8.06922 12.78364,-8.74232 -1.19094,-1.06047 -2.35317,-2.15936 -3.49145,-3.28067 6.41895,-15.15159 -13.19364,-41.71389 2.32922,-50.24651 0.0663,-24.14042 -6.69732,-39.85145 -1.16779,-66.63065 -0.30552,-3.70407 -5.98182,-2.38187 -5.80792,-6.54454 1.1024,-3.34549 5.65316,-3.42954 5.80792,-7.64823 6.45324,-16.96281 5.776,-31.67257 8.13315,-48.06553 2.46084,-17.09805 19.20338,-28.89855 16.26152,-48.06074 7.69125,-4.57565 11.7339,-16.64986 11.62701,-25.12085 8.70111,2.02411 19.00395,-1.03806 22.06941,-7.64824 -0.73065,-5.1359 -5.43216,-6.54931 -5.81426,-12.01177 10.83012,-19.67201 31.52512,-30.07666 41.8248,-50.25131 7.31872,1.05647 7.19189,-4.88619 10.45281,-7.63864 54.05246,-37.75611 131.78408,-63.99908 214.91839,-58.99363 1.80674,1.5735 4.03386,2.75563 4.6393,5.46645 7.40011,1.41583 13.95144,3.62803 22.07661,4.36997 9.98778,9.99167 29.67056,10.32142 44.13893,16.37852 19.56147,8.19408 41.73303,19.11818 61.57297,26.22456 27.97229,10.00929 59.21905,19.53355 78.99196,36.04255 22.57358,18.83404 28.74283,47.02268 41.824,73.18239 5.29104,10.57115 11.64935,19.53755 16.27032,30.58811 -6.21634,-3.62882 -12.0522,-7.60341 -15.10172,-14.20236 -3.56002,0.79475 -3.42442,-1.88405 -6.97175,-1.0941 -5.96422,-8.59265 -15.27635,-14.03588 -26.71988,-17.47743 -7.32032,-11.22183 -24.57337,-14.22717 -37.17354,-19.65521 -9.82823,-4.23709 -17.0337,-16.24327 -27.88294,-16.39054 0.13718,6.40448 7.50218,6.21639 9.28978,5.46165 0.55998,3.44234 -3.56882,2.4763 -2.31963,6.55014 4.54596,6.34203 11.05106,8.4846 16.26231,14.20396 2.43294,2.6748 2.93707,7.59219 5.81108,10.9233 10.44645,12.09182 28.26906,18.83163 38.33737,30.58089 5.47927,6.40688 8.49928,14.23599 15.0993,19.66321 5.07488,4.17949 11.44192,5.17353 16.2687,8.73752 9.62004,7.1288 15.58668,21.14227 25.55613,27.30745 8.74895,13.24992 19.26875,24.84632 33.68526,32.76907 2.55099,5.60651 4.83711,12.41756 1.16781,18.56831 -11.98837,-6.20837 -15.36256,-20.50518 -25.56252,-28.39672 -11.39886,-21.32155 -33.55444,-32.53456 -49.95713,-49.15321 -2.73527,0.0264 -3.41727,-1.88405 -6.96617,-1.0949 -14.18036,-13.28755 -32.61716,-25.48022 -53.88415,-32.49695 0.32466,-1.36942 0.49776,-2.73483 0.49776,-4.09464 0,-6.36526 -2.50471,-9.54748 -7.4966,-9.54748 -1.15345,0 -2.59565,0.28892 -4.32585,0.86759 -1.73015,0.57865 -5.00144,0.86759 -9.80426,0.86759 -4.81163,0 -10.47994,-0.76835 -17.01295,-2.31464 -40.36986,-9.25855 -85.74195,-13.88781 -136.10594,-13.88781 -50.37275,0 -93.05027,5.78657 -128.03176,17.35897 -11.15559,3.86093 -19.6086,5.78658 -25.37588,5.78658 -5.76717,0 -10.38102,-0.28974 -13.84132,-0.86838 -3.46031,-0.57867 -6.15495,-0.8676 -8.07415,-0.8676 -7.69523,0 -11.53446,4.2499 -11.53446,12.73052 0,10.03648 1.4422,17.1701 4.32503,21.40958 2.88364,4.24992 9.02897,6.36525 18.45517,6.36525 9.41662,0 27.00706,-1.73597 52.76978,-5.20793 l 40.94735,-5.78659 c 10.38103,-1.53669 15.57155,0.6779 15.57155,6.65419 0,5.98588 -1.54113,19.195 -4.61381,39.63775 -3.08222,20.45157 -5.28942,31.82627 -6.63191,34.1409 -1.35206,2.31463 -3.08225,3.86093 -5.19051,4.62928 -2.11783,0.77794 -12.7868,3.47195 -32.00777,8.10123 l -56.5189,12.73051 c -18.45511,3.86093 -34.99103,5.78659 -49.59818,5.78659 h -9.8043 c -3.46034,-0.38018 -6.73162,0.38816 -9.80429,2.31462 -3.08221,1.93447 -5.57818,5.01825 -7.49743,9.25855 -1.92798,4.24992 -2.88358,10.61437 -2.88358,19.09575 0,8.49023 1.82028,15.33409 5.47923,20.54282 3.64943,5.20793 9.41664,7.8115 17.30173,7.8115 7.8763,0 21.05001,-2.40508 39.50516,-7.23284 18.45511,-4.81896 37.00043,-11.28425 55.65336,-19.38549 18.64423,-8.10122 36.3336,-13.88782 53.05859,-17.35897 16.72496,-3.47195 38.64045,-5.20794 65.74564,-5.20794 27.10601,0 53.63526,1.83522 79.58705,5.49766 25.95256,3.67125 44.88552,8.0108 56.80767,13.02024 23.447,10.0357 43.05562,15.04514 58.82495,15.04514 15.7614,0 29.79179,-7.52257 42.10084,-22.56772 12.30024,-15.04512 18.45511,-28.3543 18.45511,-39.92748 0,-3.85133 -1.25232,-5.78579 -3.74832,-5.78579 -2.50549,0 -5.29018,0.38817 -8.36204,1.15731 -31.14307,6.56455 -52.39171,9.83721 -63.72834,9.83721 -11.34542,0 -21.4377,-1.15732 -30.27757,-3.47195 -31.53073,-8.4814 -60.75378,-13.88782 -87.66196,-16.20246 -4.61379,-0.38017 -7.40725,-2.50432 -8.36213,-6.36525 -0.96435,-3.85132 -1.44217,-13.68855 -1.44217,-29.51164 0,-15.81347 0.47782,-27.28742 1.44217,-34.43062 0.95488,-7.13359 3.54974,-10.70479 7.78538,-10.70479 0.76657,0 8.93962,0.86759 24.51116,2.60436 15.57152,1.73599 28.73644,2.60358 39.50514,2.60358 20.37437,0 34.11685,-3.27268 41.23533,-9.83721 1.26433,-1.16613 2.4114,-2.32905 3.45075,-3.48878 8.42354,5.23035 17.50672,9.83803 25.75078,15.23324 0.6828,9.91644 10.8309,10.9409 18.58836,14.20396 0.2624,2.06413 -1.309,2.41068 -1.15824,4.36836 30.00475,24.579 50.38072,58.21408 77.83532,85.19337 4.77092,13.94385 26.75261,37.37275 26.71353,53.52478 -0.0192,7.00154 -7.15838,15.13718 -9.2898,24.03798 -1.40233,5.821 -1.69826,12.10621 -2.33003,17.46862 -0.83757,7.19443 -2.93707,13.55648 -3.48189,19.6592 -1.20608,13.45644 6.48517,26.49508 5.81192,39.32323 -1.63285,31.00189 -25.42608,49.67026 -33.69406,71.00462 -21.37465,14.48648 -33.70202,37.48479 -58.08311,49.15403 -0.44114,3.5808 -3.39575,4.81495 -4.64889,7.64181 -25.64226,8.98723 -39.73887,27.04653 -73.18406,26.22055 -3.48823,4.0026 -7.31873,7.67465 -12.77965,9.82521 -12.08645,-2.82927 -22.46908,5.45283 -29.03959,7.65223 -9.55541,3.19422 -28.78192,2.19057 -38.33734,3.27826 -39.54981,4.47881 -88.68776,-3.1238 -124.305,-12.01977 -9.59132,-2.39708 -19.98908,-8.61748 -26.71356,-10.9177 -15.34895,-5.26797 -27.42662,-1.84003 -32.52861,-14.20397 -4.16549,0.39697 -4.25881,2.93172 -8.13316,1.09329 -14.18594,-9.70274 -30.34379,-17.95685 -45.30828,-24.02997 -12.86262,-23.2264 -40.62271,-32.43693 -53.43425,-55.71617 -27.18177,-14.48568 -36.82097,-45.47477 -58.08475,-65.53176 -6.21792,5.92986 6.80583,19.90813 -2.32126,27.30664 4.91374,10.83845 9.33767,30.08709 6.97174,45.87975 9.06326,3.80811 13.82301,17.99687 2.31487,21.83619 -0.55597,8.58305 9.87848,19.71363 8.13718,29.50282 6.79701,1.77039 9.60723,-0.34896 11.61737,-5.46325 4.70156,5.59691 4.79568,16.048 8.1268,22.94069 6.29849,1.17732 5.03338,-4.74374 10.45441,-4.37316 2.01414,3.5704 6.28333,5.01423 10.45362,6.55413 -2.41379,8.09723 5.69462,6.30363 8.13792,9.8292 -1.37519,0.53544 -2.64034,1.16533 -3.48746,2.18258 7.84124,-3.7977 6.79067,5.87624 9.29459,8.74312 5.17375,5.92505 18.65775,9.8204 16.26232,20.7525 8.93881,-2.2226 6.38225,-7.66263 11.61583,-9.82921 4.56672,7.75629 8.72186,5.18793 17.42531,12.01579 1.82512,-4.14346 7.7942,-10.11573 6.97414,-13.10668 -0.11325,4.77735 -5.67148,-1.1317 -5.80789,-3.27746 5.20962,-10.60315 0.76737,-21.46722 2.31562,-30.58651 9.63443,4.77894 11.03674,17.29096 18.59242,24.03157 -0.848,7.47695 -7.8133,11.79888 -8.12839,20.7525 5.3141,4.88379 12.79322,9.62992 22.0694,7.64903 10.65145,5.63694 12.13432,19.89371 17.42852,30.5801 5.53117,0.40419 6.35992,0.36656 11.61105,2.18737 -0.14996,2.68842 -0.17466,5.26317 1.15905,6.55094 12.77249,1.51749 16.24639,-8.0316 27.88614,-4.36915 18.17755,-16.84355 44.92539,-6.4517 69.69739,-9.8292 1.32174,-8.51502 7.74229,-6.31564 15.10486,-9.8316 2.23989,3.49355 -0.68201,5.50966 1.16143,9.8316 1.59217,2.13935 7.00845,0.6955 6.97172,4.36835 7.90663,-2.82686 17.20839,-9.06486 9.2898,-12.01099 9.63601,-2.58115 15.21895,-5.68815 24.40108,-6.55573 1.71263,4.78535 5.56782,3.3335 3.48347,9.83001 16.62369,-0.78996 27.95311,-1.44624 40.65619,-4.36836 1.82672,1.92406 0.32944,6.97512 3.49226,7.64422 7.704,3.14461 9.54026,-6.45249 19.749,-4.36835 1.8873,2.09454 2.00058,9.14809 -1.16699,9.8292 6.91028,4.52123 11.39564,-1.08929 20.91357,0 2.46482,-1.68395 5.1698,-3.14461 8.13153,-4.36835 25.52503,-0.93164 38.17147,-15.53016 54.59732,-24.02757 6.55773,-3.39593 12.58581,-5.91385 17.43012,-9.83 35.66833,-28.91217 63.72513,-68.31622 96.42048,-99.39974 5.30458,-12.12064 16.07008,-19.11738 24.3955,-28.40633 3.42286,0.71152 4.70231,7.05355 8.12835,4.37315 9.13103,-5.31597 1.0362,-27.95892 15.10488,-26.21333 11.47065,1.42222 6.86803,19.8809 8.13238,31.67498 0.7147,6.683 4.66485,12.2599 4.64407,18.57153 -0.0274,8.81355 -4.71348,15.44051 1.16464,19.65921 10.94819,-5.53769 14.07189,-19.92574 16.26153,-30.58331 5.91161,-28.7961 4.52203,-63.23954 6.96853,-92.8456 0.22654,-2.76364 2.29493,-6.06671 2.32203,-8.73591 0.0741,-6.05392 -3.43958,-11.44273 -3.48743,-17.47743 -0.13083,-20.22507 22.20657,-37.66729 10.46477,-58.98884 z M 509.94707,407.04896 c -1.54107,14.46648 -2.88361,23.14636 -4.03706,26.03966 -1.15345,2.8933 -3.56004,4.91902 -7.20941,6.07553 -3.65816,1.15731 -8.7498,1.73597 -15.28278,1.73597 -5.38913,0 -8.65085,-1.44625 -9.80431,-4.33955 -1.15346,-2.89328 -1.73015,-12.44076 -1.73015,-28.64323 0,-25.07203 1.34326,-39.92748 4.03785,-44.55675 2.685,-4.62928 8.16344,-6.94392 16.43544,-6.94392 8.26317,0 13.64351,0.6779 16.14822,2.0249 2.49678,1.35662 3.7491,4.33955 3.7491,8.96962 7.8e-4,11.96217 -0.77453,25.17127 -2.3069,39.63777 z m -278.29731,313.7958 c -4.11364,-0.58987 -2.85252,3.86814 -6.96615,3.27988 -3.13407,-2.49713 -2.25026,-5.51928 -3.48665,-7.65144 1.9854,-1.41823 6.54574,0.6795 10.4528,-1.08848 -0.81442,3.3607 -0.81442,2.09853 0,5.46004 z m 95.26301,36.04976 c -2.42731,-0.6323 -3.31752,-2.71082 -6.9701,-2.18658 -0.26402,-1.94247 1.16619,-5.47445 -2.32125,-4.36677 3.83123,-3.5936 -3.11973,-2.61317 -2.32922,-6.55492 4.17106,-0.64269 5.62924,1.26376 8.13794,2.18497 -2.62595,4.42598 4.38645,3.02615 3.48263,10.9233 z m 110.3592,65.53337 c -6.57048,-17.65993 17.45168,-3.44155 0,0 z m 22.079,0 c 0.0934,-1.5495 0.18348,-3.08859 -1.1678,-3.27749 0.30153,-2.55473 5.10278,-0.62588 5.81272,0 -1.01067,1.60634 -1.74613,3.46635 -4.64492,3.27749 z"
     p-id="16435"
     id="path11"
     style="stroke-width:0.785874" />
  <path
     d="m 669.61732,679.33976 c -3.89667,-2.59316 -11.00482,-0.65469 -10.45282,4.36756 2.815,5.43043 11.24012,2.57957 10.45282,-4.36756 z"
     p-id="16436"
     id="path12"
     style="stroke-width:0.785874" />
  <path
     d="m 754.41799,620.35014 c -2.89399,-0.17048 -3.59993,1.71837 -5.81194,2.19297 -0.25764,2.05933 1.31302,2.40829 1.1694,4.36276 h 4.64254 c 1.58657,-1.39502 1.58657,-5.15351 0,-6.55573 z"
     p-id="16437"
     id="path13"
     style="stroke-width:0.785874" />
  <path
     d="m 781.13867,657.48997 c -1.49162,1.44065 -1.49162,4.0274 0,5.46485 h 4.6505 c 0.86549,-4.09863 -1.31778,-5.3248 -4.6505,-5.46485 z"
     p-id="16438"
     id="path14"
     style="stroke-width:0.785874" />
  <path
     d="m 828.76584,747.05971 c 10.43925,1.07888 17.13736,-1.36141 22.07581,-5.45685 -6.15253,-3.93216 -17.77871,0.91561 -22.07581,5.45685 z"
     p-id="16439"
     id="path15"
     style="stroke-width:0.785874" />
  <path
     d="m 400.10324,248.97334 c 2.96575,-0.11763 5.53511,-0.61949 6.97171,-2.1818 -2.03888,-2.67399 -6.62313,-2.21939 -6.97171,2.1818 z"
     p-id="16440"
     id="path16"
     style="stroke-width:0.785874" />
  <path
     d="m 239.78769,560.27362 v -3.27267 c -3.28087,0.902 -3.01283,-1.54069 -5.81429,-1.09009 -0.89343,4.25711 3.84719,6.08513 5.81429,4.36276 z"
     p-id="16441"
     id="path17"
     style="stroke-width:0.785874" />
  <path
     d="m 364.08712,256.62155 c -9.11746,-0.20809 -11.58868,5.84823 -18.58756,7.64343 6.53776,1.87525 16.69949,-1.57832 18.58756,-7.64343 z"
     p-id="16442"
     id="path18"
     style="stroke-width:0.785874" />
  <path
     d="m 361.44201,448.4235 c 0.66849,0 1.33058,-0.032 1.99181,-0.0679 1.00665,1.91685 3.06148,3.3791 6.46205,3.78729 6.01132,0.71711 7.15522,-2.6748 11.61578,-5.46645 v -4.40437 c 5.75292,-3.61922 12.60659,-8.59747 20.58976,-14.96993 8.45223,-6.7446 13.93153,-12.24226 16.43624,-16.49137 2.49594,-4.2403 3.74829,-8.67989 3.74829,-13.30917 0,-4.62926 -1.92798,-8.00198 -5.76723,-10.12615 -3.84801,-2.11613 -13.46247,-3.18301 -28.83616,-3.18301 -13.84134,0 -25.47478,2.12495 -34.89139,6.36525 -9.42541,4.24991 -14.12931,10.99454 -14.12931,20.25308 0,9.25855 2.10904,17.84798 6.34395,25.74993 4.22609,7.91155 9.70459,11.86293 16.43621,11.86293 z"
     p-id="16443"
     id="path19"
     style="stroke-width:0.785874" />
  <path
     d="m 354.52056,659.92146 c -3.2713,8.30051 -4.90254,14.36724 -4.90254,18.22736 0,3.85214 1.82027,7.52258 5.47923,10.99454 3.64941,3.47196 7.3985,5.20793 11.24652,5.20793 3.83845,0 7.20865,-1.64553 10.09229,-4.91902 2.88356,-3.28225 6.34395,-5.49685 10.381,-6.65417 4.03705,-1.15731 21.05079,-3.47195 51.03963,-6.9439 29.98962,-3.47195 57.86137,-5.20795 83.62407,-5.20795 36.52263,0 60.93486,3.37192 73.24308,10.12615 12.30105,6.74462 21.23985,10.12614 26.81803,10.12614 5.56863,0 9.41659,-3.57202 11.53365,-10.7056 2.10909,-7.1424 3.17239,-13.01944 3.17239,-17.64872 0,-3.47195 -0.77456,-6.9439 -2.3069,-10.41666 -1.54112,-3.47196 -2.3069,-9.34899 -2.3069,-17.64871 0,-8.2909 -1.15344,-17.73914 -3.46031,-28.3543 -2.30768,-10.60555 -3.46034,-19.38549 -3.46034,-26.3286 0,-18.51709 2.88279,-31.62776 8.65086,-39.34883 3.4603,-4.2403 5.1905,-8.58065 5.1905,-13.02023 0,-4.42999 -2.3077,-8.19088 -6.92071,-11.28345 -4.61375,-3.08379 -10.48071,-4.62928 -17.59044,-4.62928 -7.11931,0 -16.92361,-0.57946 -29.41288,-1.73599 -12.4989,-1.15731 -24.61005,-2.89328 -36.3336,-5.20792 -11.73232,-2.31545 -25.4747,-3.47276 -41.23532,-3.47276 -15.77011,0 -30.47541,0.77795 -44.11891,2.31543 -13.65232,1.5463 -27.01587,4.05062 -40.08269,7.52178 l -34.6034,10.41666 c -7.69521,1.93448 -14.61592,4.43959 -20.76203,7.52178 -2.30688,0.77795 -3.94693,1.73597 -4.90253,2.8933 -0.96361,1.15731 -1.44221,2.60436 -1.44221,4.34033 0,1.73598 2.10902,3.95938 6.34395,6.65418 4.22607,2.70281 6.34395,9.06807 6.34395,19.09496 0,10.0357 -2.40665,26.81761 -7.20944,50.34255 -4.80845,23.53935 -8.84551,39.45209 -12.108,47.743 z m 58.53779,-102.71162 c 4.22612,-2.694 14.60715,-5.68654 31.14307,-8.96882 16.52637,-3.27347 32.87244,-4.91901 49.02149,-4.91901 16.14904,0 35.9459,0.8676 59.40253,2.60358 23.44778,1.73677 36.9095,4.2499 40.3698,7.52256 3.46035,3.28229 5.19052,6.85347 5.19052,10.70481 0,3.09258 -1.73017,4.62926 -5.19052,4.62926 l -41.52404,-4.62926 c -16.14829,-1.5367 -34.99031,-2.31465 -56.5189,-2.31465 -21.53661,0 -47.67821,3.09179 -78.43438,9.25855 -2.6938,0.38818 -5.00148,0.57866 -6.92068,0.57866 -1.928,0 -2.88364,-1.73597 -2.88364,-5.20793 0,-3.47195 2.10909,-6.55414 6.34475,-9.25775 z m -5.76723,59.60191 c 7.29879,-3.08299 22.10455,-6.16596 44.4077,-9.25775 22.29359,-3.08378 42.19094,-4.62926 59.69049,-4.62926 17.49075,0 35.55821,0.77793 54.212,2.31462 18.64419,1.5463 28.92629,2.8933 30.85428,4.05141 1.91923,1.15653 2.8836,4.82777 2.8836,10.99373 0,6.17557 -2.11704,9.25856 -6.34395,9.25856 l -34.02585,-2.8933 c -13.46329,-1.53669 -32.00853,-2.31464 -55.65423,-2.31464 -23.64564,0 -54.88762,4.05062 -93.71714,12.15185 -3.46032,0.77794 -6.54258,1.15732 -9.22757,1.15732 -2.69456,0 -4.03708,-2.69482 -4.03708,-8.10123 0,-5.39842 3.64942,-9.63952 10.95775,-12.73131 z"
     p-id="16444"
     id="path20"
     style="stroke-width:0.785874" />
  <path
     d="m 631.0582,380.72036 c -4.6138,0 -8.65088,0.57865 -12.11119,1.73598 -14.61591,4.62928 -28.45809,7.91153 -41.5241,9.83721 -5.7672,1.15732 -8.65085,3.09179 -8.65085,5.78659 0,2.70281 7.10974,8.67988 21.33876,17.93843 14.21947,9.25855 24.98739,13.88783 32.29572,13.88783 7.29881,0 13.84137,-2.79405 19.60861,-8.39016 5.76645,-5.5873 8.65084,-12.24229 8.65084,-19.96334 0,-6.16676 -2.11703,-11.18421 -6.34397,-15.04515 -4.23407,-3.85293 -8.65003,-5.78739 -13.26382,-5.78739 z"
     p-id="16445"
     id="path21"
     style="stroke-width:0.785874" />
  <path
     d="m 475.31337,845.06201 h 2.41137 v -0.58186 h -0.78489 v -2.80445 h -0.65413 v 2.80445 h -0.97235 v -2.56034 h -0.65408 v 4.79255 c 0,1.59431 -0.22415,2.78285 -0.67325,3.564 0.22413,0.18729 0.40522,0.36896 0.54242,0.54424 0.489,-0.95963 0.74903,-2.18818 0.78091,-3.68565 h 1.03303 v 3.55439 h 0.6541 v -4.13625 h -1.68233 v -1.49108 z"
     p-id="16446"
     id="path22"
     style="stroke-width:0.785874" />
  <path
     d="m 482.75415,845.08044 v -0.56265 h -3.94453 v -1.5479 c 1.09683,-0.0184 2.52705,-0.12805 4.29072,-0.32815 l -0.25205,-0.6939 c -1.309,0.2313 -2.87329,0.36255 -4.69278,0.39376 v 3.73289 c 0,0.97561 -0.0691,1.74796 -0.20581,2.31702 -0.14355,0.58746 -0.41478,1.19734 -0.81363,1.82883 0.16194,0.18167 0.31749,0.38176 0.46745,0.60026 0.80407,-1.09409 1.20609,-2.51073 1.20609,-4.2491 v -1.43504 h 0.4443 c 0.18105,1.49426 0.58153,2.678 1.2013,3.55038 -0.50812,0.51623 -1.23084,1.00205 -2.16886,1.45827 0.17466,0.22489 0.32704,0.44739 0.45784,0.66588 0.90377,-0.52182 1.61215,-1.05087 2.12663,-1.5847 0.44272,0.48742 1.0673,0.97883 1.87455,1.47266 0.15553,-0.2065 0.3462,-0.4378 0.57035,-0.69393 -0.87266,-0.39696 -1.53633,-0.83476 -1.99105,-1.31337 0.70358,-0.9068 1.18059,-2.11055 1.42948,-3.61121 z m -2.84611,0.056 h 2.13616 c -0.21536,1.26616 -0.59345,2.27141 -1.13589,3.01573 -0.51132,-0.78435 -0.84475,-1.7896 -1.00027,-3.01573 z"
     p-id="16447"
     id="path23"
     style="stroke-width:0.785874" />
  <path
     d="m 487.54025,846.56269 c -0.34301,-0.41298 -0.7945,-0.88439 -1.3553,-1.41663 l -0.40201,0.37538 v -1.23817 h 1.31775 v -0.65628 h -1.31775 v -1.9881 h -0.71072 v 1.9881 h -1.45818 v 0.65628 h 1.33692 c -0.31747,1.20694 -0.79449,2.29784 -1.43022,3.27347 0.12437,0.28173 0.23052,0.55625 0.31746,0.82517 0.48576,-0.72514 0.89739,-1.61352 1.23402,-2.66359 v 5.1399 h 0.71072 v -5.16792 c 0.3805,0.40017 0.77932,0.866 1.1965,1.39744 z"
     p-id="16448"
     id="path24"
     style="stroke-width:0.785874" />
  <path
     d="m 492.22342,842.93307 v -0.68431 h -5.30937 v 0.70351 h 0.57992 c 0.22414,2.31385 0.80723,4.06423 1.74773,5.25275 -0.69161,0.69392 -1.69508,1.35102 -3.00968,1.9697 0.2122,0.2505 0.38609,0.4874 0.52328,0.71312 1.27152,-0.64429 2.26225,-1.33822 2.97296,-2.08254 0.63576,0.68191 1.4893,1.30059 2.56134,1.85682 0.14997,-0.22488 0.35819,-0.48422 0.62621,-0.77875 -1.10957,-0.44418 -2.00057,-1.00683 -2.6738,-1.68795 1.02815,-1.3326 1.68863,-3.08698 1.98141,-5.26235 z m -3.98205,0.0184 h 3.18757 c -0.26167,1.95127 -0.82243,3.50479 -1.6823,4.66129 -0.81687,-1.08769 -1.31778,-2.64198 -1.50527,-4.66129 z"
     p-id="16449"
     id="path25"
     style="stroke-width:0.785874" />
  <path
     d="m 497.79519,844.27847 c -0.1651,0 -0.30707,0.0576 -0.42514,0.17369 -0.118,0.116 -0.17788,0.2545 -0.17788,0.41698 0,0.16247 0.058,0.30252 0.17312,0.41938 0.11562,0.11688 0.25843,0.17608 0.4299,0.17608 0.17155,0 0.3151,-0.0584 0.42997,-0.17608 0.11488,-0.11762 0.1731,-0.25691 0.1731,-0.41938 0,-0.16248 -0.0596,-0.30174 -0.17786,-0.41698 -0.11888,-0.11525 -0.26009,-0.17369 -0.42521,-0.17369 z"
     p-id="16450"
     id="path26"
     style="stroke-width:0.785874" />
  <path
     d="m 497.79519,848.50435 c -0.1651,0 -0.30707,0.0576 -0.42514,0.17369 -0.118,0.116 -0.17788,0.25612 -0.17788,0.4218 0,0.16887 0.0596,0.31053 0.17788,0.42418 0.11887,0.11363 0.26004,0.17128 0.42514,0.17128 0.16512,0 0.30716,-0.0567 0.42521,-0.17128 0.118,-0.1145 0.17786,-0.25531 0.17786,-0.42418 0,-0.16568 -0.0596,-0.30654 -0.17786,-0.4218 -0.11888,-0.11525 -0.26009,-0.17369 -0.42521,-0.17369 z"
     p-id="16451"
     id="path27"
     style="stroke-width:0.785874" />
  <path
     d="m 508.47059,849.57765 1.54272,-5.18633 h -0.88781 l -1.0099,3.85053 c -0.0506,0.18167 -0.0781,0.34095 -0.0836,0.47861 h -0.0426 c -0.0185,-0.2065 -0.0442,-0.36575 -0.0751,-0.47861 l -1.08402,-3.85053 h -0.84638 l -1.11273,3.83132 c -0.0476,0.15286 -0.0766,0.31613 -0.0886,0.48742 h -0.0377 c -0.0161,-0.2001 -0.0395,-0.35776 -0.0704,-0.47382 l -1.033,-3.84572 h -0.95325 l 1.55148,5.18632 h 0.92545 l 1.11275,-3.64883 c 0.0627,-0.19369 0.098,-0.35616 0.10763,-0.48742 h 0.0185 c 0.013,0.17528 0.041,0.34096 0.0838,0.49702 l 1.02819,3.63924 h 0.95403 z"
     p-id="16452"
     id="path28"
     style="stroke-width:0.785874" />
  <path
     d="m 515.67284,848.24104 c -0.0506,0.1817 -0.0782,0.34096 -0.0836,0.47862 h -0.0426 c -0.0185,-0.20649 -0.0443,-0.36576 -0.075,-0.47862 l -1.08409,-3.85052 h -0.84634 l -1.11275,3.83132 c -0.0475,0.15286 -0.0765,0.31615 -0.0885,0.48741 h -0.0379 c -0.0161,-0.20009 -0.0394,-0.35775 -0.0701,-0.4738 l -1.03305,-3.84574 h -0.9531 l 1.55153,5.18634 h 0.92528 l 1.1128,-3.64885 c 0.0627,-0.19366 0.098,-0.35615 0.10763,-0.48741 h 0.0185 c 0.013,0.17527 0.041,0.34095 0.0838,0.49702 l 1.0282,3.63924 h 0.95326 l 1.54269,-5.18633 h -0.88785 z"
     p-id="16453"
     id="path29"
     style="stroke-width:0.785874" />
  <path
     d="m 523.23006,848.24104 c -0.0506,0.1817 -0.0777,0.34096 -0.0836,0.47862 h -0.0426 c -0.0185,-0.20649 -0.0442,-0.36576 -0.075,-0.47862 l -1.08405,-3.85052 h -0.84632 l -1.11275,3.83132 c -0.0476,0.15286 -0.0771,0.31615 -0.0885,0.48741 h -0.0379 c -0.0161,-0.20009 -0.0394,-0.35775 -0.0703,-0.4738 l -1.03299,-3.84574 h -0.95246 l 1.55151,5.18634 h 0.92528 l 1.11277,-3.64885 c 0.0627,-0.19368 0.0981,-0.35615 0.10775,-0.48741 h 0.0185 c 0.013,0.17527 0.041,0.34095 0.0838,0.49702 l 1.02819,3.63924 h 0.95326 l 1.54269,-5.18634 h -0.88779 z"
     p-id="16454"
     id="path30"
     style="stroke-width:0.785874" />
  <path
     d="m 525.88955,848.49475 c -0.1715,0 -0.3151,0.0576 -0.42994,0.17369 -0.11487,0.116 -0.17312,0.25771 -0.17312,0.4266 0,0.16246 0.0573,0.30253 0.1707,0.41938 0.11412,0.11688 0.25607,0.17608 0.42756,0.17608 0.17791,0 0.32387,-0.0584 0.43954,-0.17608 0.11562,-0.11762 0.17311,-0.25692 0.17311,-0.41938 0,-0.16568 -0.058,-0.30735 -0.17311,-0.4242 -0.11563,-0.11688 -0.26005,-0.17609 -0.43474,-0.17609 z"
     p-id="16455"
     id="path31"
     style="stroke-width:0.785874" />
  <path
     d="m 530.45146,842.15912 -2.57486,0.74993 v 0.84439 l 1.66395,-0.48342 v 5.51527 h -1.62251 v 0.79236 h 4.15115 v -0.79236 h -1.61773 z"
     p-id="16456"
     id="path32"
     style="stroke-width:0.785874" />
  <path
     d="m 533.37736,846.3466 h 2.75279 v 0.70831 h -2.75279 z"
     p-id="16457"
     id="path33"
     style="stroke-width:0.785874" />
  <path
     d="m 539.99576,845.78875 v -0.0185 c 0.96596,-0.27211 1.44858,-0.88359 1.44858,-1.83361 0,-0.51623 -0.18665,-0.93563 -0.56078,-1.25895 -0.37415,-0.32335 -0.86949,-0.48503 -1.48607,-0.48503 -0.63257,0 -1.18535,0.13765 -1.65919,0.41299 v 0.86759 c 0.44909,-0.34417 0.92687,-0.51624 1.43504,-0.51624 0.88778,0 1.33213,0.39859 1.33213,1.19572 0,0.86279 -0.58153,1.29419 -1.74375,1.29419 h -0.57515 v 0.75954 h 0.60308 c 1.3122,0 1.96786,0.45942 1.96786,1.37901 0,0.413 -0.14595,0.74195 -0.43711,0.98685 -0.29118,0.24491 -0.68601,0.36818 -1.18455,0.36818 -0.62299,0 -1.18216,-0.19209 -1.67834,-0.57705 v 0.95161 c 0.42038,0.25611 0.97395,0.38416 1.65915,0.38416 0.77934,0 1.40318,-0.20007 1.87219,-0.60025 0.46902,-0.4002 0.70357,-0.92684 0.70357,-1.58071 0,-0.46901 -0.15155,-0.86039 -0.45551,-1.17494 -0.30391,-0.31454 -0.7179,-0.49861 -1.24115,-0.55464 z"
     p-id="16458"
     id="path34"
     style="stroke-width:0.785874" />
  <path
     d="m 543.13224,846.3466 h 2.75278 v 0.70831 h -2.75278 z"
     p-id="16459"
     id="path35"
     style="stroke-width:0.785874" />
  <path
     d="m 546.98341,843.12515 h 3.61753 l -2.6922,6.4525 h 0.94843 l 2.83258,-6.94471 v -0.31935 h -4.70634 z"
     p-id="16460"
     id="path36"
     style="stroke-width:0.785874" />
  <path
     d="m 553.31624,848.49475 c -0.17152,0 -0.31508,0.0576 -0.43,0.17369 -0.11488,0.116 -0.17307,0.25771 -0.17307,0.4266 0,0.16246 0.0571,0.30253 0.17069,0.41938 0.11413,0.11688 0.25604,0.17608 0.42758,0.17608 0.17787,0 0.32381,-0.0584 0.43952,-0.17608 0.11563,-0.11762 0.17309,-0.25692 0.17309,-0.41938 0,-0.16568 -0.058,-0.30735 -0.17309,-0.4242 -0.11575,-0.11688 -0.26004,-0.17609 -0.43472,-0.17609 z"
     p-id="16461"
     id="path37"
     style="stroke-width:0.785874" />
  <path
     d="m 555.66937,845.05001 c -0.49058,0.52024 -0.73626,1.20614 -0.73626,2.05613 0,0.76595 0.22736,1.38942 0.68198,1.87123 0.45472,0.48182 1.05618,0.72193 1.80441,0.72193 0.55756,0 1.03457,-0.1185 1.43025,-0.35616 v -0.84438 c -0.39568,0.29374 -0.81605,0.441 -1.26195,0.441 -0.52646,0 -0.94525,-0.16887 -1.25476,-0.50662 -0.3095,-0.33777 -0.46505,-0.80517 -0.46505,-1.40224 0,-0.60668 0.16432,-1.09169 0.493,-1.45584 0.32862,-0.36419 0.75455,-0.54666 1.27863,-0.54666 0.44595,0 0.85037,0.13446 1.21487,0.40339 v -0.91002 c -0.3366,-0.16887 -0.74183,-0.25291 -1.21487,-0.25291 -0.82241,7.9e-4 -1.47886,0.26093 -1.97025,0.78115 z"
     p-id="16462"
     id="path38"
     style="stroke-width:0.785874" />
  <path
     d="m 562.38825,844.26967 c -0.81605,0 -1.46299,0.24812 -1.93998,0.74353 -0.47698,0.49542 -0.71471,1.17172 -0.71471,2.02811 0,0.79716 0.23049,1.43985 0.6916,1.92726 0.46106,0.48743 1.07845,0.73153 1.85059,0.73153 0.79131,0 1.42227,-0.25131 1.89291,-0.75474 0.47065,-0.50342 0.70595,-1.16454 0.70595,-1.98409 0,-0.84117 -0.22015,-1.49987 -0.66129,-1.97688 -0.4411,-0.47702 -1.04893,-0.71472 -1.82507,-0.71472 z m 1.14069,4.16665 c -0.27442,0.33617 -0.67324,0.50423 -1.19654,0.50423 -0.50815,0 -0.91256,-0.17206 -1.2133,-0.51623 -0.30073,-0.34415 -0.45068,-0.81475 -0.45068,-1.41182 0,-0.61628 0.14918,-1.1005 0.44673,-1.45345 0.29752,-0.35298 0.70355,-0.52984 1.21725,-0.52984 0.5233,0 0.92212,0.16886 1.19654,0.50663 0.27437,0.33773 0.41156,0.82196 0.41156,1.45343 0,0.62829 -0.13719,1.1109 -0.41156,1.44705 z"
     p-id="16463"
     id="path39"
     style="stroke-width:0.785874" />
  <path
     d="m 571.8998,844.26967 c -0.7634,0 -1.33693,0.35297 -1.71983,1.05968 -0.10287,-0.32495 -0.28637,-0.58348 -0.55118,-0.77395 -0.26483,-0.19049 -0.57034,-0.28573 -0.91574,-0.28573 -0.70756,0 -1.24519,0.31454 -1.6121,0.94283 h -0.0185 v -0.82039 h -0.91574 v 5.18634 h 0.91574 v -2.95013 c 0,-0.4658 0.11487,-0.84917 0.34381,-1.14931 0.22893,-0.30014 0.51765,-0.45061 0.86705,-0.45061 0.75701,0 1.13588,0.49222 1.13588,1.47747 v 3.07178 h 0.91575 v -2.95414 c 0,-0.43137 0.11962,-0.80515 0.35973,-1.12049 0.24013,-0.31533 0.52809,-0.47381 0.86474,-0.47381 0.39881,0 0.6852,0.12088 0.85986,0.36336 0.17472,0.2425 0.26169,0.64509 0.26169,1.20774 v 2.97814 h 0.91573 v -3.19824 c -7.9e-4,-1.40784 -0.56955,-2.11054 -1.70704,-2.11054 z"
     p-id="16464"
     id="path40"
     style="stroke-width:0.785874" />
</svg>
