<?xml version="1.0" encoding="UTF-8" standalone="no"?>
<svg
   t="1759511040992"
   class="icon"
   viewBox="0 0 1024 1024"
   version="1.1"
   p-id="4674"
   width="200"
   height="200"
   id="svg3"
   sodipodi:docname="zssqmfb.svg"
   inkscape:version="1.4.2 (f4327f4, 2025-05-13)"
   xmlns:inkscape="http://www.inkscape.org/namespaces/inkscape"
   xmlns:sodipodi="http://sodipodi.sourceforge.net/DTD/sodipodi-0.dtd"
   xmlns="http://www.w3.org/2000/svg"
   xmlns:svg="http://www.w3.org/2000/svg">
  <defs
     id="defs3" />
  <sodipodi:namedview
     id="namedview3"
     pagecolor="#505050"
     bordercolor="#eeeeee"
     borderopacity="1"
     inkscape:showpageshadow="0"
     inkscape:pageopacity="0"
     inkscape:pagecheckerboard="0"
     inkscape:deskcolor="#505050"
     inkscape:zoom="4.185"
     inkscape:cx="100"
     inkscape:cy="100"
     inkscape:window-width="1920"
     inkscape:window-height="1051"
     inkscape:window-x="-9"
     inkscape:window-y="-9"
     inkscape:window-maximized="1"
     inkscape:current-layer="svg3" />
  <path
     d="M342.878645 389.177799c12.643462-6.261524 14.118532-21.253057 17.098777-33.354657 2.408278-18.965193-2.348071-41.5127-19.326434-52.650988-14.630292-10.415804-33.505174-12.88429-51.055504-10.476011-12.854186 2.378175-25.437441 8.82032-32.903104 19.928504-12.733772 17.550329-13.516463 41.542803-6.14111 61.441204 18.212606 30.886171 64.391345 35.973659 92.327375 15.111948zM810.355597 455.706491c5.689558-28.839135 3.552211-58.521167 5.238006-87.721543-2.588899-35.943556 0.210724-72.639699-6.412041-108.071496-44.312324-8.489182-89.919097-4.635936-134.773284-4.033866 8.097836-18.453434 18.724365-35.883349 25.16651-55.119473-18.152399-13.636877-38.291627-26.039511-60.839134-30.103481-20.952023 25.106303-36.334901 54.938852-48.707432 85.042333-12.041392 1.264346-24.47413 2.317968-36.184384 4.786454-3.401693 12.222013-1.565381 26.099718-2.137347 38.83349 0.69238 11.409219-1.896519 24.413923 3.853246 34.799623 62.01317 0.391345 124.206961-3.973659 186.159924 1.595485 4.395108 16.496707 2.197554 34.67921 0.391346 50.483537-71.736595 7.52587-144.526811 9.031044-216.684855 5.629351-4.786453-40.549389-2.468485-81.550329-1.444967-122.250235-27.15334-5.53904-55.571025-3.4619-82.724365 1.204139-9.723424 61.079962-3.010348 123.544685-2.649106 185.136406 4.274694 85.042333 5.870179 170.566322 17.098777 255.036689 25.16651 5.388523 51.236124 5.238006 76.824083 7.345249 92.568203 5.779868 185.196613 8.158043 278.005644 7.315146a1859.793039 1859.793039 0 0 0 7.315146-188.989652c-1.776105-3.492004 1.836312-12.041392-3.582314-13.185324-80.045155-12.583255-162.07714-14.96143-242.393227-12.492945-3.883349 23.932267-5.44873 49.580433-0.632173 73.633114 58.491063-0.481656 117.10254 1.174036 175.382879 6.351834 3.522107 18.42333-2.197554 36.75635-3.552211 55.149577-68.515522-0.541863-137.332079 2.67921-205.516463-4.84666-7.224835-58.280339-12.553151-116.921919-12.252117-175.623707 95.006585 2.137347 190.314205-0.632173 285.049859-9.904045z"
     fill="#4FB9EB"
     p-id="4675"
     id="path1"
     style="fill:#000000;fill-opacity:1" />
  <path
     d="M422.592662 622.600188a332.161806 332.161806 0 0 0-72.037629-24.835371c19.777987-43.017874 41.753528-85.915334 52.952023-132.154281-11.138288-7.766698-27.755409-8.880527-41.362183-12.703669a1538.889934 1538.889934 0 0 0-140.161806-23.26999 253.802446 253.802446 0 0 0-15.924742 75.409219c28.176858 4.66604 56.082785 10.746943 84.380057 14.690499 2.468485-0.180621 0.060207 2.528692-0.090311 3.612417-18.242709 38.562559-34.558796 78.750706-44.402634 120.142992 25.768579 10.20508 52.139229 18.904986 79.352776 24.47413-9.904045 38.14111-27.063029 73.873942-45.907808 108.222013 18.031985 8.549389 36.936971 15.021637 55.811853 21.433678 83.898401 25.015992 169.60301 45.245532 256.662276 55.510818 2.227658 0.391345 4.786453 0.571966 5.930386-1.836312 18.363123-26.972719 35.522107-55.601129 45.486359-86.848542-83.266228-4.395108-167.555974-6.321731-249.286923-24.47413 10.656632-38.773283 23.119473-77.426152 28.598306-117.373471z"
     fill="#4FB9EB"
     p-id="4676"
     id="path2"
     style="fill:#000000;fill-opacity:1" />
</svg>
